<svg width="572" height="395" viewBox="0 0 572 395" fill="none" xmlns="http://www.w3.org/2000/svg">
<path opacity="0.6" d="M332.022 69.5496C295.432 68.3301 260.556 57.0018 227.303 44.6102C194.051 32.2187 161.092 18.4866 125.36 11.9205C102.385 7.69252 76.1112 7.09788 57.6037 18.9099C39.7897 30.2735 34.0357 49.8914 30.9406 68.0933C28.6127 81.79 27.2622 96.2023 33.6258 109.027C38.0557 117.927 45.9169 125.41 51.3557 133.936C70.2731 163.603 56.8995 200.188 36.3951 229.179C26.7788 242.785 15.6227 255.731 8.20291 270.198C0.783072 284.666 -2.65359 301.24 3.84139 315.995C10.2786 330.609 25.6122 341.605 42.228 349.33C75.9746 365.007 115.738 369.492 154.513 372.062C240.346 377.691 326.641 375.252 412.699 372.813C444.549 371.906 476.54 370.994 507.87 366.262C525.269 363.637 543.235 359.474 555.868 349.426C571.9 336.666 575.878 315.068 565.132 299.068C547.108 272.239 497.276 265.572 484.675 236.778C477.744 220.929 484.864 203.272 494.943 188.572C516.556 157.042 552.793 129.376 554.701 93.33C556.015 68.572 538.595 43.7838 511.659 32.0675C483.43 19.7767 444.281 21.3288 423.456 41.6421C402.011 62.5702 364.323 70.623 332.022 69.5496Z" fill="#587EEC"/>
<path d="M127.709 365.36C127.709 365.36 98.807 344.407 93.3472 317.754C91.1331 306.56 85.1943 296.356 76.4214 288.672C72.2246 285.058 67.6918 281.819 62.8797 278.997" stroke="#9AB1F3" stroke-width="2" stroke-miterlimit="10"/>
<path d="M59.3432 262.206C61.876 265.492 63.0215 279.415 63.0215 279.415C63.0215 279.415 49.4798 274.3 46.9417 271.02C45.723 269.443 45.2074 267.466 45.5085 265.525C45.8095 263.583 46.9025 261.836 48.5471 260.667C50.1916 259.498 52.2529 259.004 54.2776 259.292C56.3023 259.581 58.1244 260.629 59.3432 262.206Z" fill="#587EEC"/>
<path d="M83.6311 273.131C83.8938 277.208 76.9732 289.494 76.9732 289.494C76.9732 289.494 68.4972 278.135 68.2292 274.059C68.1272 272.115 68.828 270.211 70.1796 268.76C71.5312 267.308 73.4248 266.426 75.45 266.304C77.4753 266.182 79.4691 266.83 80.9994 268.108C82.5298 269.386 83.4734 271.191 83.6258 273.131H83.6311Z" fill="#587EEC"/>
<path d="M107.173 304.536C105.26 308.185 92.8112 315.441 92.8112 315.441C92.8112 315.441 91.4818 301.533 93.3945 297.884C94.3361 296.169 95.9425 294.876 97.8679 294.284C99.7933 293.693 101.884 293.85 103.69 294.722C105.496 295.594 106.872 297.111 107.524 298.946C108.175 300.782 108.049 302.789 107.173 304.536Z" fill="#587EEC"/>
<path d="M119.411 332.131C118.166 336.037 107.178 345.203 107.178 345.203C107.178 345.203 103.41 331.713 104.656 327.802C105.254 325.926 106.605 324.354 108.412 323.434C110.219 322.513 112.334 322.318 114.29 322.892C116.247 323.466 117.886 324.762 118.846 326.494C119.806 328.227 120.01 330.255 119.411 332.131Z" fill="#587EEC"/>
<path d="M64.4456 299.371C68.6495 299.915 81.939 294.16 81.939 294.16C81.939 294.16 70.7251 285.251 66.5002 284.707C64.4724 284.445 62.4195 284.967 60.7929 286.158C59.1664 287.348 58.0996 289.109 57.8271 291.054C57.5546 292.998 58.0989 294.967 59.3401 296.527C60.5813 298.087 62.4178 299.11 64.4456 299.371Z" fill="#587EEC"/>
<path d="M79.1853 331.476C83.3892 330.786 94.2509 321.488 94.2509 321.488C94.2509 321.488 80.767 316.207 76.5684 316.897C75.5632 317.055 74.6005 317.403 73.736 317.92C72.8715 318.436 72.1223 319.112 71.5316 319.908C70.9409 320.704 70.5204 321.604 70.2944 322.556C70.0684 323.509 70.0414 324.495 70.2149 325.458C70.3883 326.42 70.7589 327.34 71.3052 328.165C71.8515 328.989 72.5626 329.702 73.3976 330.261C74.2326 330.821 75.1748 331.216 76.17 331.425C77.1652 331.633 78.1936 331.651 79.1958 331.476H79.1853Z" fill="#587EEC"/>
<path d="M97.9714 360.8C102.233 360.8 114.582 353.397 114.582 353.397C114.582 353.397 102.228 346.004 97.9662 346.004C95.9203 346.004 93.9581 346.784 92.5115 348.171C91.0648 349.558 90.2521 351.44 90.2521 353.402C90.2521 355.364 91.0648 357.245 92.5115 358.633C93.9581 360.02 95.9203 360.8 97.9662 360.8H97.9714Z" fill="#587EEC"/>
<path d="M408.475 184.133C408.475 184.133 426.289 153.872 453.141 145.154C464.416 141.563 474.174 134.563 480.95 125.203C484.127 120.729 486.87 115.984 489.142 111.028" stroke="#9AB1F3" stroke-width="2" stroke-miterlimit="10"/>
<path d="M505.999 105.485C502.941 108.327 488.706 111.27 488.706 111.27C488.706 111.27 492.2 97.7141 495.258 94.8669C496.735 93.5415 498.694 92.825 500.716 92.8716C502.738 92.9183 504.659 93.7243 506.067 95.1162C507.476 96.5081 508.257 98.3746 508.245 100.314C508.232 102.253 507.426 104.11 505.999 105.485Z" fill="#587EEC"/>
<path d="M497.949 129.991C493.745 130.787 480.151 125.838 480.151 125.838C480.151 125.838 490.765 116.264 494.943 115.483C495.946 115.269 496.984 115.25 497.995 115.426C499.005 115.603 499.969 115.971 500.83 116.509C501.69 117.048 502.43 117.746 503.005 118.562C503.581 119.378 503.98 120.297 504.181 121.263C504.381 122.229 504.378 123.225 504.171 124.19C503.965 125.155 503.56 126.071 502.979 126.884C502.399 127.697 501.655 128.391 500.791 128.924C499.927 129.458 498.961 129.82 497.949 129.991Z" fill="#587EEC"/>
<path d="M468.648 156.538C464.623 155.202 455.474 144.338 455.474 144.338C455.474 144.338 469.662 141.223 473.698 142.559C474.667 142.867 475.564 143.357 476.334 144.001C477.105 144.644 477.734 145.427 478.186 146.306C478.639 147.184 478.904 148.14 478.968 149.118C479.032 150.096 478.893 151.076 478.558 152.002C478.224 152.927 477.701 153.78 477.02 154.511C476.339 155.241 475.514 155.834 474.592 156.256C473.67 156.678 472.67 156.92 471.649 156.969C470.629 157.017 469.609 156.871 468.648 156.538Z" fill="#587EEC"/>
<path d="M441.722 171.837C437.518 171.172 426.609 161.925 426.609 161.925C426.609 161.925 440.056 156.553 444.255 157.218C446.276 157.537 448.082 158.612 449.276 160.208C450.47 161.804 450.954 163.789 450.621 165.727C450.289 167.665 449.167 169.397 447.503 170.541C445.839 171.686 443.769 172.151 441.748 171.832L441.722 171.837Z" fill="#587EEC"/>
<path d="M468.28 115.241C468.275 119.328 476.005 131.185 476.005 131.185C476.005 131.185 483.724 119.343 483.724 115.261C483.751 114.274 483.571 113.291 483.196 112.371C482.821 111.451 482.257 110.613 481.538 109.906C480.819 109.198 479.96 108.636 479.011 108.252C478.062 107.868 477.043 107.67 476.013 107.67C474.983 107.67 473.963 107.868 473.014 108.252C472.065 108.636 471.206 109.198 470.487 109.906C469.769 110.613 469.205 111.451 468.829 112.371C468.454 113.291 468.274 114.274 468.301 115.261L468.28 115.241Z" fill="#587EEC"/>
<path d="M437.05 133.513C438.322 137.414 449.378 146.509 449.378 146.509C449.378 146.509 453.057 132.994 451.775 129.094C451.11 127.287 449.739 125.798 447.952 124.94C446.166 124.082 444.101 123.923 442.194 124.496C440.287 125.069 438.687 126.329 437.729 128.011C436.772 129.693 436.532 131.665 437.061 133.513H437.05Z" fill="#587EEC"/>
<path d="M409.268 155.268C409.836 159.299 419.126 170.068 419.126 170.068C419.126 170.068 425.122 157.344 424.555 153.297C424.442 152.317 424.126 151.368 423.625 150.506C423.125 149.645 422.449 148.888 421.639 148.28C420.829 147.672 419.9 147.226 418.908 146.968C417.915 146.709 416.879 146.644 415.859 146.775C414.84 146.907 413.858 147.232 412.972 147.733C412.086 148.234 411.313 148.899 410.699 149.69C410.084 150.482 409.642 151.383 409.396 152.341C409.15 153.298 409.107 154.294 409.268 155.268Z" fill="#587EEC"/>
<path opacity="0.25" d="M505.999 105.485C502.941 108.327 488.706 111.27 488.706 111.27C488.706 111.27 492.2 97.7141 495.258 94.8669C496.735 93.5415 498.694 92.825 500.716 92.8716C502.738 92.9183 504.659 93.7243 506.067 95.1162C507.476 96.5081 508.257 98.3746 508.245 100.314C508.232 102.253 507.426 104.11 505.999 105.485Z" fill="black"/>
<path opacity="0.25" d="M497.949 129.991C493.745 130.787 480.151 125.838 480.151 125.838C480.151 125.838 490.765 116.264 494.943 115.483C495.946 115.269 496.984 115.25 497.995 115.426C499.005 115.603 499.969 115.971 500.83 116.509C501.69 117.048 502.43 117.746 503.005 118.562C503.581 119.378 503.98 120.297 504.181 121.263C504.381 122.229 504.378 123.225 504.171 124.19C503.965 125.155 503.56 126.071 502.979 126.884C502.399 127.697 501.655 128.391 500.791 128.924C499.927 129.458 498.961 129.82 497.949 129.991Z" fill="black"/>
<path opacity="0.25" d="M468.648 156.538C464.623 155.202 455.474 144.338 455.474 144.338C455.474 144.338 469.662 141.223 473.698 142.559C474.667 142.867 475.564 143.357 476.334 144.001C477.105 144.644 477.734 145.427 478.186 146.306C478.639 147.184 478.904 148.14 478.968 149.118C479.032 150.096 478.893 151.076 478.558 152.002C478.224 152.927 477.701 153.78 477.02 154.511C476.339 155.241 475.514 155.834 474.592 156.256C473.67 156.678 472.67 156.92 471.649 156.969C470.629 157.017 469.609 156.871 468.648 156.538Z" fill="black"/>
<path opacity="0.25" d="M441.722 171.837C437.518 171.172 426.609 161.925 426.609 161.925C426.609 161.925 440.056 156.553 444.255 157.218C446.276 157.537 448.082 158.612 449.276 160.208C450.47 161.804 450.954 163.789 450.621 165.727C450.289 167.665 449.167 169.397 447.503 170.541C445.839 171.686 443.769 172.151 441.748 171.832L441.722 171.837Z" fill="black"/>
<path opacity="0.25" d="M468.28 115.241C468.275 119.328 476.005 131.185 476.005 131.185C476.005 131.185 483.724 119.343 483.724 115.261C483.751 114.274 483.571 113.291 483.196 112.371C482.821 111.451 482.257 110.613 481.538 109.906C480.819 109.198 479.96 108.636 479.011 108.252C478.062 107.868 477.043 107.67 476.013 107.67C474.983 107.67 473.963 107.868 473.014 108.252C472.065 108.636 471.206 109.198 470.487 109.906C469.769 110.613 469.205 111.451 468.829 112.371C468.454 113.291 468.274 114.274 468.301 115.261L468.28 115.241Z" fill="black"/>
<path opacity="0.25" d="M437.05 133.513C438.322 137.414 449.378 146.509 449.378 146.509C449.378 146.509 453.057 132.994 451.775 129.094C451.11 127.287 449.739 125.798 447.952 124.94C446.166 124.082 444.101 123.923 442.194 124.496C440.287 125.069 438.687 126.329 437.729 128.011C436.772 129.693 436.532 131.665 437.061 133.513H437.05Z" fill="black"/>
<path opacity="0.25" d="M409.268 155.268C409.836 159.299 419.126 170.068 419.126 170.068C419.126 170.068 425.122 157.344 424.555 153.297C424.442 152.317 424.126 151.368 423.625 150.506C423.125 149.645 422.449 148.888 421.639 148.28C420.829 147.672 419.9 147.226 418.908 146.968C417.915 146.709 416.879 146.644 415.859 146.775C414.84 146.907 413.858 147.232 412.972 147.733C412.086 148.234 411.313 148.899 410.699 149.69C410.084 150.482 409.642 151.383 409.396 152.341C409.15 153.298 409.107 154.294 409.268 155.268Z" fill="black"/>
<path d="M409.499 183.533C409.499 183.533 412.999 148.943 433.84 130.55C442.63 122.884 448.593 112.693 450.834 101.504C451.854 96.1844 452.362 90.7865 452.353 85.3781" stroke="#9AB1F3" stroke-width="2" stroke-miterlimit="10"/>
<path d="M465.416 73.7071C463.84 77.4966 452.048 85.7207 452.048 85.7207C452.048 85.7207 449.515 71.9685 451.107 68.179C451.874 66.3594 453.363 64.9063 455.246 64.1394C457.13 63.3724 459.254 63.3546 461.152 64.0896C463.049 64.8247 464.565 66.2525 465.364 68.059C466.164 69.8654 466.183 71.9026 465.416 73.7222V73.7071Z" fill="#587EEC"/>
<path d="M468.417 99.2663C464.933 101.615 450.393 102.386 450.393 102.386C450.393 102.386 456.057 89.5153 459.541 87.167C460.367 86.574 461.309 86.146 462.311 85.9083C463.313 85.6707 464.354 85.6283 465.374 85.7835C466.393 85.9388 467.369 86.2886 468.245 86.8123C469.121 87.3359 469.878 88.0227 470.472 88.8321C471.066 89.6415 471.484 90.5569 471.703 91.5241C471.921 92.4914 471.935 93.4909 471.743 94.4634C471.552 95.4358 471.159 96.3615 470.587 97.1857C470.016 98.0098 469.278 98.7156 468.417 99.2612V99.2663Z" fill="#587EEC"/>
<path d="M452.831 134.934C448.585 135.277 435.627 128.887 435.627 128.887C435.627 128.887 447.292 120.522 451.538 120.179C453.577 120.015 455.601 120.634 457.164 121.9C458.727 123.167 459.701 124.977 459.872 126.932C460.044 128.887 459.398 130.828 458.078 132.326C456.757 133.825 454.87 134.76 452.831 134.924V134.934Z" fill="#587EEC"/>
<path d="M434.696 159.37C430.571 160.378 416.678 156.21 416.678 156.21C416.678 156.21 426.699 146.076 430.824 145.048C432.804 144.556 434.907 144.838 436.671 145.832C438.434 146.827 439.714 148.453 440.227 150.352C440.741 152.251 440.447 154.268 439.409 155.959C438.372 157.65 436.677 158.877 434.696 159.37Z" fill="#587EEC"/>
<path d="M435.064 97.311C436.788 101.045 448.843 108.901 448.843 108.901C448.843 108.901 450.892 95.0735 449.168 91.3394C448.31 89.5924 446.772 88.2367 444.885 87.5622C442.998 86.8876 440.91 86.9476 439.069 87.7293C437.227 88.5111 435.777 89.9526 435.029 91.7458C434.281 93.539 434.293 95.5418 435.064 97.3261V97.311Z" fill="#587EEC"/>
<path d="M414.234 126.146C417.045 129.215 430.992 133.236 430.992 133.236C430.992 133.236 428.638 119.454 425.826 116.385C425.163 115.639 424.351 115.028 423.439 114.585C422.527 114.143 421.532 113.879 420.513 113.809C419.493 113.738 418.469 113.863 417.5 114.175C416.532 114.488 415.637 114.982 414.869 115.629C414.101 116.275 413.475 117.062 413.026 117.943C412.578 118.824 412.317 119.781 412.258 120.76C412.199 121.738 412.343 122.718 412.682 123.643C413.022 124.568 413.549 125.418 414.234 126.146Z" fill="#587EEC"/>
<path d="M398.002 156.845C400.23 160.322 413.267 166.546 413.267 166.546C413.267 166.546 413.378 152.582 411.165 149.1C410.064 147.492 408.353 146.359 406.395 145.94C404.437 145.522 402.386 145.852 400.678 146.859C398.969 147.867 397.736 149.473 397.242 151.337C396.747 153.201 397.029 155.177 398.028 156.845H398.002Z" fill="#587EEC"/>
<path d="M382.7 48.0723C383.572 45.0034 384.623 41.9194 385.359 38.8101C384.476 41.9194 383.42 45.0135 382.7 48.0723Z" fill="url(#paint0_linear_4_6)"/>
<path d="M378.79 77.6327C378.716 77.5117 378.664 77.3908 378.606 77.2799C378.606 77.2295 378.554 77.1892 378.533 77.1388C378.418 77.1907 378.301 77.2361 378.181 77.2749C377.949 77.3606 377.713 77.4412 377.471 77.5067C377.229 77.5722 377.13 77.6075 376.946 77.6478C376.793 77.6982 376.637 77.7369 376.478 77.7637L376.52 77.8544C376.714 77.8141 376.904 77.7788 377.098 77.7284L377.151 78.3533C377.371 78.3533 377.576 78.3231 377.776 78.3231C377.87 78.3181 377.965 78.3181 378.06 78.3231C378.47 78.3231 378.827 78.3231 379.111 78.3231C379 78.0963 378.885 77.8595 378.79 77.6327ZM485.463 240.467C482.994 237.277 478.065 203.04 478.065 203.04C478.065 203.04 468.369 178.695 471.013 168.98C473.656 159.264 463.792 134.405 463.792 134.405C463.792 134.405 457.276 131.689 456.924 127.658C456.924 127.658 430.319 119.595 429.074 113.548C428.065 108.589 411.565 105.031 405.637 103.907C403.829 96.9129 402.011 90.3871 400.671 86.8243C400.309 85.7157 399.967 84.7582 399.652 84.0023C397.387 78.4591 390.387 77.9552 385.311 78.3987C385.091 77.4539 384.683 76.5589 384.108 75.7631C384.024 75.4895 383.858 75.2458 383.63 75.0627C383.521 74.9736 383.405 74.8927 383.283 74.8208C383.191 74.6574 383.07 74.5108 382.926 74.3874C382.781 74.2628 382.623 74.1546 382.453 74.0649C382.331 74.0015 382.204 73.946 382.074 73.8986C381.77 73.7874 381.455 73.7047 381.134 73.6517C380.76 73.5778 380.38 73.5307 379.999 73.5106C380.926 73.1215 381.753 72.5417 382.421 71.8123C382.876 71.3002 383.214 70.703 383.414 70.0587C383.581 69.5228 383.655 68.9646 383.635 68.4058C383.499 68.636 383.34 68.8537 383.162 69.0558C383.383 66.8234 382.153 64.5558 381.449 62.3334C380.596 59.4403 380.438 56.3993 380.987 53.4391C381.691 48.9743 383.435 44.4591 384.618 39.9137C384.621 39.8886 384.621 39.8632 384.618 39.8381C385.238 37.5808 385.621 35.2697 385.763 32.9394C385.968 28.2377 384.712 23.5461 382.694 19.2628C380.903 15.4682 378.259 11.7341 374.213 10.1921C371.207 9.02799 367.839 9.21444 364.602 9.02295C357.34 8.58957 350.414 6.14048 343.509 3.91312C336.604 1.68576 329.5 -0.340025 322.232 0.0479989C314.965 0.436023 307.487 3.79722 304.171 9.96529C303.12 11.8903 302.516 14.032 301.26 15.8411C298.906 19.2527 294.692 20.961 291.176 23.3143C287.661 25.6677 284.566 29.0087 283.294 32.9948C282.599 35.1423 282.502 37.4265 283.01 39.6214C283.124 40.1171 283.272 40.6052 283.451 41.0828C283.95 42.4143 284.728 43.6337 285.737 44.6657C286.498 45.4285 287.373 46.0789 288.333 46.5958C289.539 47.2366 290.829 47.718 292.169 48.0269C292.122 48.1781 292.075 48.3394 292.022 48.4956C291.938 48.7526 291.864 48.9995 291.786 49.2767C291.612 49.8965 291.449 50.5264 291.313 51.1614C291.307 51.2066 291.307 51.2522 291.313 51.2974C290.667 54.1638 290.343 57.088 290.346 60.0204C290.345 61.4073 290.418 62.7932 290.567 64.1728C292.668 84.6222 310.272 100.753 332.022 101.801C332.768 101.836 333.52 101.856 334.282 101.856C334.628 101.856 334.97 101.856 335.333 101.856C335.674 102.29 336.01 102.733 336.331 103.167C336.652 103.6 336.946 104.044 337.224 104.477L336.462 103.721L335.7 103.051C335.494 103.323 335.264 103.577 335.012 103.812C334.515 103.644 334.008 103.506 333.493 103.398C331.313 102.935 327.992 102.764 323.62 104.028C319.6 105.182 314.686 107.556 308.937 112.066L280.924 128.192L265.769 137.031L260.309 149.83C260.309 149.83 256.205 165.039 251.639 182.465C251.46 182.515 251.287 182.566 251.113 182.626C250.743 182.586 250.371 182.565 249.999 182.566C247.35 182.56 244.801 183.538 242.888 185.297C240.976 187.055 239.848 189.455 239.742 191.994C230.661 202.576 230.146 213.159 232.28 218.017C232.473 218.472 232.716 218.906 233.005 219.312C234.403 221.247 237.014 226.236 239.663 231.552C239.595 231.991 239.553 232.359 239.532 232.636C239.527 232.726 239.527 232.817 239.532 232.908C239.532 232.908 241.108 255.741 235.853 262.287C234.702 263.713 234.876 265.588 235.853 267.664C239.374 275.132 253.294 285.105 253.294 285.105C253.294 285.105 269.989 285.019 279.29 284.046C279.263 284.943 279.242 285.835 279.221 286.707C279.011 295.516 279.011 302.898 279.011 302.898L278.664 312.135C278.664 312.135 275.511 331.602 273.935 336.969C272.942 340.335 274.087 371.503 275.086 394.417H439.573C441.507 380.861 438.779 339.675 438.779 339.675C438.779 339.675 436.189 329.027 436.094 319.745C436.089 319.734 436.086 319.723 436.086 319.712C436.086 319.701 436.089 319.689 436.094 319.679C436.094 318.868 436.094 318.077 436.126 317.301L437.318 317.26L439.462 317.19H439.657C439.657 317.19 439.709 316.998 439.83 316.686C440.114 315.908 440.501 315.167 440.981 314.484C441.895 313.189 443.325 311.919 445.474 311.833C446.662 311.788 448.501 310.865 450.576 309.505C450.59 309.508 450.605 309.508 450.618 309.505C456.204 305.882 463.587 299.194 465.379 298.096C467.844 296.584 479.646 286.506 479.646 286.506C479.646 286.506 481.407 284.369 483.283 281.794L483.351 281.703C485.684 278.478 488.164 274.623 487.555 273.409C486.504 271.232 488.259 266.026 488.259 266.026C493.74 256.406 487.933 243.657 485.463 240.467ZM383.85 85.4688C383.901 85.6192 383.933 85.7748 383.945 85.9324C383.814 85.7661 383.682 85.5897 383.551 85.4284L383.425 85.2672L383.336 85.1462L383.535 84.8842C383.535 84.8842 383.535 84.8842 383.535 84.9195C383.674 85.0829 383.781 85.2689 383.85 85.4688ZM382.085 81.004C381.512 81.1148 381.06 81.2156 380.766 81.2912C380.393 80.6562 380.035 80.0213 379.715 79.3763C380.557 79.845 381.351 80.39 382.085 81.004ZM381.097 81.8002C381.095 81.7901 381.095 81.78 381.097 81.7699L381.139 81.8002C381.354 81.9362 381.565 82.0672 381.759 82.2033C381.932 82.3242 382.09 82.4401 382.248 82.5611C382.143 82.7375 382.027 82.9189 381.911 83.065C381.728 82.7879 381.554 82.5208 381.386 82.2436C381.281 82.1328 381.186 81.9816 381.097 81.8002ZM377.944 75.5817C378.959 75.4857 379.982 75.4857 380.997 75.5817C381.139 75.5817 381.265 75.6069 381.391 75.6271C381.676 75.6693 381.956 75.7385 382.227 75.8337C382.848 76.6668 383.23 77.6416 383.336 78.6607L383.052 78.701L382.773 78.7514C382.248 78.8371 381.722 78.9227 381.312 79.0034L380.787 79.1092C380.088 79.2553 379.683 79.3662 379.668 79.3712C379.599 79.2352 379.531 79.1092 379.457 78.9782C379.342 78.7615 379.221 78.5398 379.116 78.3231C379.011 78.1064 378.874 77.8595 378.764 77.6327C378.69 77.5117 378.638 77.3908 378.58 77.2799C378.58 77.2295 378.527 77.1892 378.506 77.1388C378.476 77.0854 378.449 77.0298 378.427 76.9725C378.107 76.3477 377.813 75.7228 377.529 75.108C377.497 75.0475 377.471 74.982 377.445 74.9216L377.844 74.8964V75.0274L377.944 75.5817ZM252.569 388.188C252.527 380.685 251.959 372.566 250.383 364.947C249.71 361.707 249.017 358.466 248.312 355.282C248.134 354.485 247.96 353.699 247.787 352.913L246.168 353.12H246.021C241.607 333.159 236.993 315.572 236.993 315.572C236.993 315.572 227.829 282.016 228.89 279.34C229.027 278.992 228.854 278.055 228.465 276.679C226.247 269.05 216.988 248.026 213.751 240.84C213.751 240.809 213.725 240.774 213.714 240.749C213.189 239.545 212.811 238.733 212.695 238.496L213.457 227.773L213.499 227.128L213.599 225.757L213.557 225.722L213.599 225.087C213.599 225.087 205.601 218.798 192.054 214.258C191.529 214.076 190.972 213.9 190.42 213.728C191.098 209.39 191.996 204.491 193.168 199.719C193.278 199.24 193.399 198.777 193.525 198.308C193.636 197.84 193.762 197.386 193.888 196.927C194.088 196.182 194.303 195.446 194.524 194.72C195.254 194.499 195.974 194.252 196.684 193.99L196.957 193.889C205.696 190.628 212.907 184.44 217.255 176.472C221.602 168.504 222.792 159.296 220.604 150.551C219.356 145.592 217.051 140.933 213.835 136.869C213.594 136.557 213.336 136.244 213.079 135.937C212.821 135.63 212.511 135.287 212.222 134.975C213.741 131.664 215.533 128.514 215.68 125.294C215.706 124.886 215.706 124.477 215.68 124.07V124.019C215.485 121.948 214.529 119.852 212.301 117.65C209.048 114.419 204.419 112.782 199.789 111.996C195.16 111.209 190.441 111.189 185.785 110.66C178.066 109.773 170.546 107.49 162.827 106.79C153.318 105.946 143.746 107.509 135.065 111.325C129.322 113.845 123.505 118.249 123.158 124.291C122.874 129.285 126.5 134.073 125.586 139.006C124.676 143.854 119.527 147.669 119.979 152.572C120.152 154.487 121.177 156.2 122.459 157.727C122.9 158.231 123.368 158.735 123.851 159.239C125.722 161.139 127.782 162.963 128.828 165.356C128.87 165.457 128.912 165.558 128.949 165.659C129.837 168.022 129.437 171.01 127.241 172.366C127.253 172.375 127.262 172.387 127.267 172.401C127.299 172.442 127.33 172.472 127.356 172.512C127.36 172.504 127.36 172.495 127.356 172.487C128.135 173.372 129.185 174 130.357 174.281L130.804 174.412C130.441 174.79 130.099 175.183 129.753 175.596L129.527 175.883C128.948 176.63 128.421 177.413 127.95 178.227C127.682 178.68 127.425 179.134 127.209 179.587C126.489 180.97 125.968 182.439 125.659 183.956C125.097 187.292 125.89 190.769 125.039 194.035C123.988 198.066 120.662 201.16 118.786 204.905C115.234 211.96 117.246 220.239 117.961 228.03C118.933 238.612 117.356 249.24 115.785 259.752C114.952 265.342 114.118 270.938 113.284 276.538C111.182 290.594 109.08 304.65 106.978 318.707C106.211 323.857 105.302 329.289 101.723 333.265H101.76C101.76 333.265 101.76 333.295 101.723 333.305C102.798 333.756 103.94 334.038 105.107 334.142C109.779 334.59 114.729 332.423 118.933 330.055C122.262 328.21 125.415 326.087 128.355 323.711C127.924 325.222 127.462 326.87 126.968 328.644C126.969 328.661 126.969 328.678 126.968 328.694C121.035 350.363 111.492 390.088 111.492 390.088C111.492 390.088 110.625 391.816 109.5 394.391H257.687C255.953 392.376 254.34 390.446 253.079 388.889L252.569 388.188ZM142.848 187.827C142.884 187.766 142.911 187.711 142.948 187.655C142.948 187.816 142.948 187.973 142.948 188.124C142.948 188.275 142.948 188.411 142.948 188.552C142.948 188.693 142.948 188.678 142.948 188.749C142.948 188.819 142.948 188.749 142.948 188.749C142.948 188.955 142.9 189.162 142.863 189.369C142.863 189.369 142.863 189.394 142.863 189.414L143.389 189.6L143.999 189.842C147.6 191.206 151.247 192.441 154.939 193.546C155.317 193.662 155.701 193.773 156.085 193.879L156.163 194.504C156.258 195.144 156.347 195.794 156.431 196.444C156.431 196.444 156.431 196.474 156.431 196.494C156.668 198.293 156.899 200.087 157.104 201.841C157.104 201.841 147.456 198.313 147.577 203.67C147.572 203.766 147.572 203.862 147.577 203.957C147.566 204.085 147.566 204.213 147.577 204.34C147.666 208.513 149.027 210.987 149.301 212.257C149.284 212.31 149.256 212.358 149.217 212.398C148.983 212.885 148.903 213.426 148.985 213.955C148.976 214.857 149.05 215.757 149.206 216.646C148.922 216.812 148.644 216.979 148.365 217.15C148.155 217.276 147.955 217.417 147.75 217.558C146.461 213.27 144.775 209.101 142.711 205.101C141.266 202.249 139.642 199.276 139.658 196.146C139.658 195.945 139.658 195.738 139.684 195.532C139.743 194.625 139.923 193.729 140.22 192.866C140.341 192.538 140.473 192.216 140.62 191.898C140.963 191.144 141.347 190.407 141.77 189.691C142.044 189.217 142.333 188.749 142.611 188.275C142.701 188.134 142.785 187.988 142.869 187.847L142.848 187.827ZM378.79 77.6327C378.716 77.5117 378.664 77.3908 378.606 77.2799C378.606 77.2295 378.554 77.1892 378.533 77.1388C378.418 77.1907 378.301 77.2361 378.181 77.2749C377.949 77.3606 377.713 77.4412 377.471 77.5067C377.229 77.5722 377.13 77.6075 376.946 77.6478L376.478 77.7637L376.52 77.8544C376.714 77.8141 376.904 77.7788 377.098 77.7284L377.151 78.3533C377.371 78.3533 377.576 78.3231 377.776 78.3231H378.06C378.47 78.3231 378.827 78.3231 379.111 78.3231C379 78.0963 378.885 77.8595 378.79 77.6327Z" fill="url(#paint1_linear_4_6)"/>
<path d="M263.972 151.649L260.819 152.985C260.819 152.985 240.267 229.552 240.267 235.74C240.267 241.928 283.846 276.362 283.846 276.362L290.646 232.348C290.646 232.348 280.882 131.417 263.972 151.649Z" fill="#E8F5FF"/>
<path d="M359.563 127.295L341.355 118.184C340.335 114.014 338.525 110.06 336.016 106.518C333.351 102.829 329.81 99.2058 325.396 97.316C314.24 92.5186 372.584 67.3374 372.584 67.3374C373.503 70.3624 374.585 73.3396 375.826 76.2569C378.832 83.3724 383.819 92.5741 390.246 95.1945C401.17 99.6543 359.563 127.295 359.563 127.295Z" fill="#FFB0B1"/>
<path opacity="0.1" d="M375.826 76.2569C373.333 84.6649 368.149 92.1095 361.006 97.5393C353.862 102.969 345.121 106.11 336.016 106.518C333.351 102.829 329.81 99.2058 325.396 97.316C314.24 92.5187 372.584 67.3374 372.584 67.3374C373.503 70.3624 374.585 73.3396 375.826 76.2569Z" fill="black"/>
<path d="M377.466 63.5429C377.468 71.789 374.92 79.8505 370.144 86.7078C365.368 93.5651 358.579 98.9102 350.635 102.067C342.691 105.224 333.95 106.051 325.516 104.443C317.082 102.835 309.335 98.8645 303.254 93.0339C297.174 87.2034 293.032 79.7745 291.355 71.6868C289.677 63.5992 290.538 55.2161 293.829 47.5977C297.12 39.9794 302.693 33.4681 309.843 28.8873C316.993 24.3065 325.399 21.862 333.998 21.863C339.713 21.8377 345.377 22.8984 350.662 24.984C355.948 27.0695 360.75 30.1386 364.791 34.0139C368.833 37.8893 372.034 42.494 374.209 47.5623C376.385 52.6307 377.492 58.062 377.466 63.5429Z" fill="#FFB0B1"/>
<path d="M383.74 121.943L371.885 148.47L361.428 166.077H327.955L318.191 142.004L322.148 117.04H347.713L364.218 116.148L369.794 114.364L373.388 116.319L383.74 121.943Z" fill="#575A89"/>
<path opacity="0.1" d="M379.657 86.5824C379.657 86.5824 387.051 88.0942 380.43 93.2997C373.809 98.5053 350.966 115.059 350.966 115.059C350.966 115.059 358.99 121.913 357.329 129.94L383.914 115.73L388.643 92.9923C388.643 92.9923 389.174 86.1591 379.657 86.5824Z" fill="black"/>
<path opacity="0.1" d="M356.194 115.059L339.284 117.735C339.284 117.735 342.773 130.107 341.029 133.619C340.976 133.728 340.932 133.841 340.897 133.957L333.998 151.841L339.169 165.886L357.066 142.478L350.966 133.619C350.966 133.619 357.413 125.425 361.249 122.583C365.085 119.741 356.194 115.059 356.194 115.059Z" fill="black"/>
<path d="M356.194 114.369L339.284 117.04C339.284 117.04 342.773 129.411 341.029 132.924C340.976 133.033 340.932 133.146 340.897 133.261L333.998 151.146L339.169 165.19L357.066 141.768L350.966 132.908C350.966 132.908 357.413 124.715 361.249 121.872C365.085 119.03 356.194 114.369 356.194 114.369Z" fill="#DCE6F2"/>
<path d="M380.367 85.247C380.367 85.247 387.76 86.7588 381.134 91.9643C374.507 97.1699 350.966 115.059 350.966 115.059C350.966 115.059 359.684 120.577 358.028 128.6L384.613 114.394L389.342 91.6569C389.342 91.6569 389.867 84.8237 380.367 85.247Z" fill="#575A89"/>
<path opacity="0.1" d="M337.177 108.095C337.177 108.095 338.79 110.988 345.911 116.203C345.911 116.203 334.056 122.25 338.591 130.752L320.456 126.216L317.666 117.856L337.177 108.095Z" fill="black"/>
<path d="M336.478 107.43C336.478 107.43 338.091 110.322 345.212 115.538C345.212 115.538 333.357 121.555 337.892 130.081L319.762 125.546L316.972 117.191L336.478 107.43Z" fill="#575A89"/>
<path opacity="0.1" d="M383.74 121.943L371.885 148.47L361.449 166.077H327.955L318.191 142.004L322.143 117.04H329.253C329.137 122.865 331.355 129.709 331.213 132.253C330.971 136.436 337.718 159.002 337.718 159.002C337.718 159.002 351.838 137.101 357.413 135.151C360.918 133.926 368.343 123.737 373.383 116.319L383.74 121.943Z" fill="black"/>
<path d="M430.44 261.536L429.237 262.987C429.237 262.987 437.954 304.949 435.542 314.479C435.132 316.196 434.898 317.948 434.844 319.709V319.785C434.418 329.481 437.471 342.064 437.471 342.064C437.471 342.064 439.909 379.153 438.522 394.407H275.296C274.34 371.851 273.31 342.628 274.245 339.388C275.821 334.041 278.974 314.645 278.974 314.645L279.321 305.453C279.321 305.453 279.321 296.569 279.605 286.672C279.726 282.222 279.905 277.551 280.162 273.409C280.493 268.198 280.955 263.809 281.591 261.652C281.983 260.017 282.208 258.35 282.264 256.673C282.264 256.517 282.264 256.356 282.295 256.194C282.295 255.69 282.348 255.146 282.369 254.587C282.369 254.431 282.369 254.274 282.369 254.083C282.469 250.838 282.432 246.988 282.322 242.997C282.322 242.78 282.322 242.558 282.322 242.336C282.232 239.343 282.101 236.289 281.954 233.387C281.497 224.316 280.903 216.646 280.903 216.646L260.856 152.95L266.258 140.19L281.25 131.382L308.969 115.332C322.49 104.673 331.391 105.953 334.786 107.123C335.116 107.23 335.439 107.357 335.753 107.501C335.858 107.551 335.942 107.591 336.021 107.637C336.129 107.686 336.233 107.743 336.331 107.808C335.401 108.237 334.594 108.875 333.977 109.667C333.282 110.569 332.786 111.598 332.521 112.691C332.344 113.368 332.219 114.057 332.148 114.752C332.08 115.483 332.054 116.239 332.054 117C332.091 118.668 332.24 120.333 332.5 121.983C332.5 122.014 332.5 122.054 332.5 122.094C332.674 123.273 332.889 124.427 333.099 125.511C333.097 125.529 333.097 125.548 333.099 125.566C333.341 126.831 333.583 128 333.746 129.008C333.777 129.19 333.803 129.356 333.83 129.512C333.946 130.178 334 130.853 333.993 131.528C334.052 133.158 334.281 134.779 334.676 136.365C334.812 137.031 334.97 137.741 335.143 138.482C335.38 139.49 335.637 140.588 335.916 141.707C336.068 142.322 336.231 142.957 336.399 143.587C336.462 143.839 336.531 144.091 336.594 144.348L336.699 144.746C337.818 149.014 339.032 153.262 339.778 155.832C340.22 157.344 340.498 158.276 340.498 158.276C340.498 158.276 348.412 146.006 354.728 139.021C354.823 138.92 354.907 138.825 354.996 138.734C355.622 138.044 356.236 137.414 356.825 136.859C358.112 135.63 359.268 134.753 360.198 134.43C360.397 134.361 360.588 134.275 360.771 134.173C363.357 132.767 367.529 127.663 371.433 122.316C371.817 121.812 372.19 121.263 372.568 120.744C373.435 119.544 374.276 118.34 375.07 117.186C375.679 116.304 376.263 115.447 376.814 114.631C379.442 110.711 381.291 107.788 381.291 107.788L384.938 107.632L385.574 107.601H386L402.558 106.866C402.558 106.866 403.272 106.981 404.45 107.208C404.513 107.208 404.576 107.208 404.644 107.249C410.519 108.367 426.84 111.91 427.839 116.823C429.058 122.84 455.385 130.868 455.385 130.868C455.732 134.899 462.179 137.555 462.179 137.555C462.179 137.555 471.943 162.298 469.331 171.993C466.751 181.568 476.047 205.252 476.294 205.918L474.512 208.074L430.44 261.536Z" fill="#E8F5FF"/>
<path opacity="0.1" d="M379.652 84.8238C379.652 84.8238 395.768 80.4396 399.431 89.465C403.094 98.4903 411.286 134.939 411.286 134.939C411.286 134.939 390.014 138.784 384.439 134.939C381.169 132.657 377.121 131.642 373.104 132.097L361.076 139.953L357.524 138.946C357.524 138.946 376.767 111.512 380.95 102.189C385.133 92.8665 386.546 88.699 379.652 84.8238Z" fill="black"/>
<path d="M378.953 82.808C378.953 82.808 395.08 78.4239 398.759 87.4492C402.437 96.4745 410.613 132.924 410.613 132.924C410.613 132.924 389.347 136.769 383.766 132.924C380.498 130.642 376.452 129.626 372.437 130.081L360.398 137.938L356.846 136.93C356.846 136.93 376.089 109.496 380.272 100.173C384.455 90.8507 385.847 86.6933 378.953 82.808Z" fill="#E8F5FF"/>
<path opacity="0.1" d="M270.772 228.216C270.772 228.216 282.8 231.058 285.07 237.579C287.34 244.1 276.179 244.266 276.179 244.266C276.179 244.266 269.379 232.731 270.772 228.216Z" fill="black"/>
<path opacity="0.1" d="M315.574 276.362C315.574 276.362 286.116 334.207 292.916 339.725C299.715 345.243 315.574 276.362 315.574 276.362Z" fill="black"/>
<path opacity="0.1" d="M356.194 233.734C356.194 233.734 379.731 289.922 375.022 298.6C370.314 307.278 385.133 298.6 385.133 298.6L356.194 233.734Z" fill="black"/>
<path d="M388.969 289.237C388.969 289.237 309.474 292.916 332.663 316.656C355.853 340.396 403.441 317.663 403.441 317.663L388.969 289.237Z" fill="#FFB0B1"/>
<path opacity="0.1" d="M377.466 63.5428C377.473 69.0105 376.353 74.4256 374.171 79.477C373.441 79.5576 372.71 79.608 372.006 79.6382C370.955 77.426 371.517 74.8711 371.538 72.4371C371.559 70.0031 370.624 67.1408 368.181 66.4857C363.309 65.1705 359.946 73.9035 355.143 72.3262C351.465 71.1269 352.427 65.7752 350.309 62.6861C348.633 60.2421 345.275 59.5517 342.663 58.0197C337.109 54.7492 337.277 49.5185 334.697 44.5699C331.996 39.3845 326.289 40.9164 321.334 43.9753C317.571 46.3034 314.324 49.4227 310.299 51.2772C306.815 52.8897 302.9 53.4743 299.037 53.56C296.66 53.6483 294.281 53.4073 291.975 52.8444C294.687 43.0651 301.016 34.5658 309.782 28.9314C318.547 23.297 329.15 20.9121 339.613 22.2216C350.076 23.5311 359.686 28.4455 366.65 36.0484C373.614 43.6512 377.456 53.4235 377.461 63.5428H377.466Z" fill="black"/>
<path d="M321.35 42.64C317.582 44.9681 314.34 48.0824 310.314 49.9469C306.83 51.5545 302.916 52.139 299.053 52.2247C294.324 52.3255 289.232 51.5293 286 48.2537C283.031 45.2302 282.322 40.5789 283.578 36.613C284.834 32.6471 287.845 29.3565 291.381 26.9729C294.918 24.5893 299.022 22.9415 301.365 19.5299C302.605 17.7258 303.205 15.5992 304.235 13.6793C307.529 7.53641 314.939 4.21048 322.101 3.79726C329.263 3.38404 336.363 5.42999 343.183 7.64727C350.004 9.86455 356.878 12.3036 364.077 12.7621C367.282 12.9536 370.614 12.7621 373.588 13.9262C377.587 15.4833 380.209 19.2074 381.996 22.9969C383.998 27.2702 385.243 31.9366 385.033 36.6029C384.592 46.5656 377.729 56.3418 380.745 65.8862C381.544 68.431 383.041 71.0413 382.243 73.5862C381.076 77.3001 376.079 78.1467 372.038 78.3231C370.987 76.1109 371.549 73.5509 371.57 71.122C371.591 68.693 370.656 65.8257 368.217 65.1706C363.341 63.8654 359.978 72.5834 355.185 71.0111C351.533 69.8067 352.479 64.4601 350.356 61.371C348.68 58.9219 345.317 58.2365 342.71 56.7046C337.156 53.4341 337.324 48.2033 334.744 43.2548C332.022 38.0442 326.31 39.5761 321.35 42.64Z" fill="#575A89"/>
<path d="M244.266 234.399L240.257 235.74C240.257 235.74 241.833 258.477 236.578 264.998C231.323 271.519 253.835 287.73 253.835 287.73C253.835 287.73 284.692 287.564 285.564 285.21C286.436 282.857 283.987 243.082 283.987 243.082C283.987 243.082 267.424 236.894 268.817 227.032C268.817 227.032 263.762 250.268 256.268 249.265C248.775 248.263 240.267 242.261 244.266 234.399Z" fill="#E8F5FF"/>
<path opacity="0.1" d="M257.64 256.3C263.482 256.3 268.218 252.147 268.218 247.023C268.218 241.899 263.482 237.746 257.64 237.746C251.798 237.746 247.062 241.899 247.062 247.023C247.062 252.147 251.798 256.3 257.64 256.3Z" fill="black"/>
<path d="M269.206 235.07C269.206 235.07 267.104 173.55 248.807 187.257C230.509 200.964 230.331 217.357 233.814 222.199C237.298 227.042 248.47 251.286 248.47 251.286C250.218 252.257 252.18 252.818 254.197 252.921C256.214 253.025 258.228 252.669 260.074 251.882C261.919 251.095 263.544 249.901 264.816 248.396C266.087 246.89 266.968 245.118 267.388 243.223L269.206 235.07Z" fill="#FFB0B1"/>
<path opacity="0.1" d="M383.346 79.2402C383.261 78.9699 383.097 78.7286 382.873 78.5448C381.969 77.7536 380.025 77.4764 377.093 77.7183L377.214 79.0487C381.123 78.7262 381.896 79.472 381.995 79.598V79.724L382.116 79.8903C382.604 80.5185 382.949 81.2375 383.13 82.0011C383.311 82.7648 383.324 83.5562 383.167 84.3248C382.311 88.4318 377.051 91.7023 376.998 91.7376L376.872 91.8082L376.793 91.9241C374.523 95.1542 361.686 104.27 358.328 106.629L358.033 106.306C356.531 107.556 343.32 118.647 342.605 122.895C342.143 125.561 339.011 126.594 337.876 126.882C336.678 126.01 332.789 123.042 330.766 119.716C328.869 116.586 336.504 110.479 337.177 108.095L336.126 107.062C336.016 107.445 326.21 116.234 328.937 120.724C331.123 124.327 335.117 127.411 336.515 128.429C336.068 132.319 333.288 155.162 329.016 160.574C323.709 167.302 319.247 201.206 319.741 213.043C320.178 223.56 317.314 243.425 307.75 251.956C306.094 253.498 304.097 254.661 301.907 255.359C299.716 256.057 297.39 256.272 295.101 255.988H294.986H294.87C294.734 255.988 280.861 257.348 269.206 247.925C259.668 240.23 254.266 227.672 253.142 210.589H252.91L252.816 205.615C255.402 205.228 257.731 203.895 259.313 201.896C260.896 199.897 261.608 197.387 261.302 194.894C260.995 192.402 259.693 190.12 257.669 188.529C255.645 186.937 253.057 186.16 250.448 186.361C247.839 186.561 245.413 187.724 243.679 189.604C241.945 191.484 241.038 193.935 241.149 196.443C241.261 198.951 242.381 201.319 244.276 203.051C246.17 204.783 248.69 205.744 251.308 205.731H251.423L251.518 210.675L251.055 210.705C252.211 228.342 257.887 241.389 267.871 249.447C275.46 255.477 285.153 258.519 294.991 257.958C295.689 258.031 296.391 258.068 297.093 258.069C301.603 258.091 305.941 256.418 309.179 253.408C319.253 244.413 322.316 223.817 321.838 212.942C321.313 200.399 325.995 167.715 330.692 161.763C335.296 155.923 338.086 133.165 338.575 128.756C340.241 128.308 344.008 126.892 344.649 123.213C345.112 120.552 353.935 112.353 359.363 107.813L359.2 107.631C362.122 105.586 371.207 99.1353 375.711 94.993C377.109 93.708 378.496 92.4229 379.946 91.1984C381.691 89.7168 383.908 87.3635 384.492 84.5818C384.69 83.6636 384.691 82.7161 384.494 81.7975C384.297 80.8789 383.907 80.0086 383.346 79.2402Z" fill="black"/>
<path d="M336.336 128.111C336.116 127.965 330.882 124.372 328.26 120.048C325.538 115.558 335.343 106.775 335.448 106.392L336.499 107.425C335.832 109.803 328.197 115.916 330.094 119.04C332.485 122.986 337.519 126.438 337.571 126.473L336.336 128.111Z" fill="#353146"/>
<path d="M357.645 107.606L356.825 106.523C356.993 106.407 373.499 94.9578 376.1 91.2539L376.184 91.143L376.305 91.0675C376.357 91.0322 381.617 87.7667 382.474 83.6547C382.632 82.8869 382.62 82.0959 382.439 81.3329C382.258 80.5699 381.912 79.8518 381.423 79.2252L381.302 79.0538V78.9329C381.197 78.8019 380.424 78.0611 376.515 78.3836L376.394 77.0482C379.331 76.8063 381.27 77.0835 382.174 77.8746C382.399 78.0603 382.565 78.3031 382.652 78.5751C383.221 79.3413 383.619 80.211 383.823 81.1305C384.028 82.0501 384.033 83 383.84 83.9218C383.257 86.7085 381.045 89.0618 379.295 90.5383C377.85 91.7629 376.457 93.058 375.064 94.3329C369.783 99.1857 358.223 107.208 357.645 107.606Z" fill="#E8F5FF"/>
<path d="M252.138 203.861L250.745 203.885L250.901 212.002L252.293 211.978L252.138 203.861Z" fill="#E8F5FF"/>
<path d="M250.63 205.091C256.246 205.091 260.798 200.725 260.798 195.34C260.798 189.955 256.246 185.589 250.63 185.589C245.014 185.589 240.462 189.955 240.462 195.34C240.462 200.725 245.014 205.091 250.63 205.091Z" fill="#587EEC"/>
<path d="M250.63 203.438C255.294 203.438 259.074 199.813 259.074 195.34C259.074 190.868 255.294 187.242 250.63 187.242C245.966 187.242 242.185 190.868 242.185 195.34C242.185 199.813 245.966 203.438 250.63 203.438Z" fill="#E8F5FF"/>
<path d="M296.431 257.419C295.729 257.42 295.027 257.385 294.329 257.313C284.492 257.869 274.8 254.827 267.209 248.802C257.225 240.739 251.56 227.707 250.393 210.055L252.495 209.929C253.62 227.012 259.022 239.575 268.565 247.265C280.22 256.663 294.087 255.328 294.224 255.328H294.339H294.455C296.745 255.611 299.071 255.395 301.262 254.697C303.453 253.999 305.451 252.837 307.109 251.296C316.667 242.765 319.531 222.9 319.095 212.383C318.57 200.536 323.031 166.631 328.344 159.909C332.994 154.018 335.879 127.466 335.911 127.199L335.989 126.443L336.767 126.312C336.814 126.312 341.355 125.486 341.922 122.23C342.658 117.987 355.847 106.896 357.345 105.641L358.717 107.153C353.267 111.688 344.444 119.892 344.003 122.558C343.362 126.247 339.594 127.658 337.934 128.101C337.408 132.515 334.639 155.268 330.051 161.108C325.354 167.06 320.672 199.744 321.197 212.287C321.649 223.162 318.617 243.762 308.543 252.752C305.3 255.77 300.95 257.446 296.431 257.419Z" fill="#353146"/>
<g opacity="0.1">
<path opacity="0.1" d="M381.943 51.63C382.805 48.5762 383.845 45.5022 384.57 42.4081C383.703 45.5173 382.658 48.5762 381.943 51.63Z" fill="black"/>
<path opacity="0.1" d="M373.152 75.627C372.101 73.4148 372.663 70.8549 372.684 68.4259C372.705 65.997 371.77 63.1548 369.331 62.4745C364.455 61.1694 361.092 69.8924 356.299 68.3151C352.621 67.1107 353.593 61.764 351.47 58.6749C349.794 56.2258 346.436 55.5405 343.83 54.0086C338.27 50.7381 338.438 45.5073 335.863 40.5587C333.157 35.3683 327.456 36.9002 322.495 39.9641C318.727 42.2922 315.485 45.4115 311.46 47.271C307.976 48.8786 304.061 49.4631 300.199 49.5488C295.496 49.6546 290.377 48.8534 287.146 45.5778C284.655 43.0582 283.756 39.3644 284.271 35.9024C284.182 36.1393 284.103 36.3761 284.024 36.613C282.763 40.5789 283.499 45.2402 286.447 48.2537C289.679 51.5292 294.797 52.3254 299.5 52.2246C303.367 52.139 307.277 51.5544 310.766 49.9469C314.802 48.0824 318.044 44.9681 321.801 42.6399C326.762 39.5761 332.469 38.0441 335.17 43.2346C337.745 48.1832 337.582 53.4139 343.136 56.6844C345.763 58.1962 349.1 58.9017 350.782 61.3508C352.884 64.4499 351.954 69.7865 355.611 70.9909C360.398 72.5632 363.761 63.8452 368.638 65.1504C371.076 65.8055 372.017 68.6779 371.99 71.1018C371.964 73.5257 371.418 76.0907 372.458 78.3029C376.499 78.1265 381.496 77.2951 382.668 73.566C382.83 73.0308 382.904 72.475 382.889 71.9181C381.181 74.7452 376.788 75.4708 373.152 75.627Z" fill="black"/>
</g>
<path opacity="0.1" d="M468.123 199.795L474.223 205.983C474.223 205.983 479.105 240.084 481.543 243.274C483.982 246.464 489.741 259.152 484.334 268.682C484.334 268.682 482.589 273.867 483.635 276.039C484.681 278.211 475.795 289.081 475.795 289.081C475.795 289.081 464.113 299.109 461.67 300.616C459.226 302.122 446.331 314.156 441.974 314.322C437.618 314.489 436.194 319.674 436.194 319.674L411.612 320.511C411.612 320.511 398.033 319.83 395.08 321.67C395.08 321.67 396.657 301.775 381.486 288.733L400.834 282.046C400.834 282.046 408.16 279.022 410.424 275.863C411.849 273.926 413.87 272.465 416.205 271.685C416.205 271.685 421.607 268.006 421.78 266.001C421.953 263.995 428.385 261.536 428.385 261.536L424.744 231.729L426.662 182.243C426.662 182.243 432.763 140.78 445.663 143.123C458.564 145.466 468.123 199.795 468.123 199.795Z" fill="black"/>
<path d="M470.224 199.795L476.325 205.983C476.325 205.983 481.207 240.084 483.645 243.274C486.084 246.464 491.843 259.152 486.436 268.682C486.436 268.682 484.696 273.867 485.742 276.039C486.788 278.211 477.896 289.081 477.896 289.081C477.896 289.081 466.215 299.109 463.771 300.616C461.328 302.122 448.433 314.156 444.076 314.322C439.72 314.489 438.296 319.674 438.296 319.674L413.714 320.511C413.714 320.511 400.125 319.83 397.182 321.67C397.182 321.67 398.759 301.775 383.588 288.733L402.936 282.046C402.936 282.046 410.261 279.022 412.526 275.863C413.951 273.926 415.972 272.465 418.307 271.685C418.307 271.685 423.709 268.006 423.882 266.001C424.055 263.995 430.487 261.536 430.487 261.536L426.846 231.729L428.764 182.243C428.764 182.243 434.865 140.78 447.765 143.123C460.666 145.466 470.224 199.795 470.224 199.795Z" fill="#E8F5FF"/>
<path opacity="0.1" d="M447.544 249.784C447.544 249.784 465.5 245.249 470.209 250.792C474.917 256.335 447.544 249.784 447.544 249.784Z" fill="black"/>
<path opacity="0.1" d="M443.362 257.389C449.463 261.486 468.291 261.652 468.291 261.652L443.362 257.389Z" fill="black"/>
<path opacity="0.1" d="M452.6 277.868C453.125 278.035 465.542 290.744 470.755 286.899C475.968 283.054 452.6 277.868 452.6 277.868Z" fill="black"/>
<path opacity="0.1" d="M285.37 171.207C285.37 171.207 289.016 195.285 287.219 205.091C285.422 214.898 291.98 227.047 291.98 227.047L285.37 171.207Z" fill="black"/>
<path d="M204.634 180.998C200.43 184.158 197.362 191.636 195.139 199.855C191.261 214.192 189.994 230.817 189.994 230.817C189.994 230.817 156.521 223.459 158.959 220.118C160.494 218.017 158.434 202.183 156.715 190.704C155.691 183.921 154.776 178.655 154.776 178.655C154.776 178.655 216.142 172.301 204.634 180.998Z" fill="#FFB0B1"/>
<path opacity="0.1" d="M204.634 180.328C200.43 183.493 197.362 190.966 195.139 199.185C188.47 201.127 181.377 201.302 174.612 199.692C167.848 198.082 161.663 194.746 156.715 190.039C155.691 183.251 154.776 177.985 154.776 177.985C154.776 177.985 216.142 171.635 204.634 180.328Z" fill="black"/>
<path d="M222.627 162.318C222.63 171.083 219.4 179.566 213.508 186.267C207.616 192.967 199.443 197.453 190.433 198.93C181.424 200.407 172.161 198.78 164.282 194.337C156.404 189.894 150.418 182.921 147.385 174.653C144.352 166.385 144.467 157.354 147.71 149.159C150.952 140.965 157.113 134.134 165.103 129.877C173.092 125.619 182.394 124.21 191.363 125.897C200.332 127.584 208.389 132.26 214.109 139.097C219.62 145.682 222.625 153.873 222.627 162.318Z" fill="#FFB0B1"/>
<path opacity="0.1" d="M253.147 394.406H242.112L241.181 375.716L240.209 356.37C240.209 356.37 242.716 356.012 246.71 355.478L248.323 355.271H248.454C249.326 359.197 250.188 363.229 251.019 367.255C252.401 374.403 253.12 381.654 253.168 388.924C253.168 389.428 253.168 389.932 253.168 390.405C253.199 391.751 253.168 393.096 253.147 394.406Z" fill="black"/>
<path d="M251.029 394.407H112.638C113.237 393.101 113.636 392.31 113.636 392.31C113.636 392.31 124.708 345.858 130.336 326.205C130.338 326.188 130.338 326.171 130.336 326.155C131.039 323.485 131.888 320.852 132.879 318.268C132.943 318.092 133.026 317.924 133.126 317.764C135.911 313.42 139.401 308.739 134.519 302.052C129.637 295.365 131.366 265.94 131.366 265.94C131.366 265.94 137.293 240.86 143.568 227.486C144.52 225.414 145.871 223.533 147.551 221.942C148.097 221.43 148.68 220.955 149.295 220.521C149.763 220.184 150.251 219.873 150.756 219.589L150.856 219.529C153.492 218.096 156.419 217.224 159.437 216.974C161.582 216.759 163.746 216.816 165.874 217.145C176.048 218.576 184.193 220.97 190.667 223.696C208.213 231.089 213.525 240.996 213.63 241.203L213.673 241.288C214.377 242.866 224.676 265.925 228.386 276.684C229.348 279.486 229.873 281.456 229.663 281.995C228.612 284.666 237.682 318.102 237.682 318.102C237.682 318.102 241.886 334.228 246.09 353.13C246.274 353.916 246.447 354.702 246.615 355.498C247.367 358.93 248.113 362.427 248.833 365.92C250.227 373.117 250.947 380.419 250.982 387.74C251.059 390.021 251.075 392.243 251.029 394.407Z" fill="#EB5569"/>
<path opacity="0.1" d="M158.612 205.474C158.612 205.474 149.064 201.947 149.18 207.298C149.295 212.65 151.508 215.21 150.809 215.991C150.11 216.772 151.156 221.454 151.156 221.454C151.156 221.454 164.056 221.454 169.984 224.014C175.911 226.573 197.761 231.703 200.551 233.266C203.342 234.828 213.688 241.832 213.688 241.832L214.618 228.569C214.618 228.569 203.925 220.098 186.379 215.754C168.833 211.41 158.612 205.474 158.612 205.474Z" fill="black"/>
<path d="M158.612 204.804C158.612 204.804 149.064 201.276 149.18 206.628C149.295 211.98 151.508 214.54 150.809 215.321C150.11 216.102 151.156 220.783 151.156 220.783C151.156 220.783 164.056 220.783 169.984 223.348C175.911 225.913 197.761 231.038 200.551 232.595C203.342 234.153 213.688 241.162 213.688 241.162L214.629 227.939C214.629 227.939 203.935 219.468 186.389 215.124C168.843 210.78 158.612 204.804 158.612 204.804Z" fill="#EB5569"/>
<path opacity="0.1" d="M187.435 236.723C187.435 236.723 205.68 255.665 204.75 260.911C203.82 266.157 187.435 236.723 187.435 236.723Z" fill="black"/>
<path opacity="0.1" d="M157.798 305.151C157.798 305.151 144.424 316.968 140.483 317.638C136.542 318.309 143.505 320.536 148.034 318.757C152.564 316.978 162.222 312.297 162.222 312.297L157.798 305.151Z" fill="black"/>
<path d="M256.463 394.407H225.275C220.914 390.778 216.788 387.417 214.161 385.396C209.957 382.161 206.925 377.399 204.991 373.569C204.555 372.697 204.177 371.881 203.856 371.14C203.282 369.864 202.777 368.561 202.343 367.235L225.438 354.082C226.714 355.123 227.914 356.248 229.027 357.449L229.306 357.756C230.588 359.207 231.717 360.855 231.817 362.206C231.933 363.778 236.494 369.86 241.155 375.701C245.885 381.642 250.73 387.321 251.05 387.704C251.05 387.704 251.849 388.747 253.152 390.35C254.072 391.509 255.207 392.9 256.463 394.407Z" fill="#FFB0B1"/>
<path opacity="0.1" d="M214.109 139.097C213 141.495 212.007 143.985 211.86 146.656C211.445 154.366 212.117 171.605 203.215 175.475C198.807 177.38 194.088 173.198 189.253 173.097C185.775 173.026 182.585 175.143 180.462 177.788C178.339 180.434 177.02 183.573 175.48 186.567C174.079 189.284 172.464 191.895 170.651 194.378C170.109 195.137 169.512 195.86 168.865 196.539C163.437 194.343 158.603 190.987 154.732 186.728C150.862 182.469 148.056 177.419 146.529 171.962C145.002 166.506 144.793 160.787 145.92 155.241C147.047 149.696 149.479 144.47 153.03 139.963C156.582 135.455 161.16 131.784 166.415 129.23C171.67 126.676 177.463 125.306 183.354 125.225C189.245 125.143 195.077 126.352 200.407 128.76C205.737 131.167 210.423 134.71 214.109 139.117V139.097Z" fill="black"/>
<path d="M211.161 145.295C210.74 153.005 211.418 170.244 202.511 174.11C198.102 176.014 193.384 171.837 188.549 171.736C185.07 171.66 181.886 173.782 179.758 176.423C177.63 179.063 176.321 182.208 174.776 185.206C173.374 187.923 171.76 190.534 169.947 193.017C168.865 194.488 167.666 195.965 166.001 196.791C163.1 198.243 159.584 197.426 156.474 196.494C152.438 195.274 148.462 193.9 144.545 192.372C144.635 191.805 144.681 191.232 144.682 190.659C144.566 190.87 144.44 191.067 144.314 191.278L144.067 191.692C143.62 192.447 143.184 193.203 142.785 193.979C142.632 194.277 142.485 194.584 142.354 194.892C141.825 196.035 141.493 197.254 141.371 198.5C141.103 201.861 142.832 205.051 144.366 208.074C150.268 219.77 153.914 233.447 149.474 245.718C147.551 251.054 144.219 255.796 141.786 260.951C137.533 270.082 136.281 280.238 138.197 290.068C139.411 296.176 141.844 302.223 141.245 308.416C140.194 319.074 130.609 327.006 121.009 332.459C115.822 335.392 109.474 338.002 103.967 335.684C107.477 331.753 108.381 326.316 109.138 321.186C111.208 307.193 113.284 293.194 115.365 279.189C116.195 273.615 117.024 268.042 117.85 262.468C119.395 251.997 120.961 241.409 119.994 230.872C119.29 223.106 117.304 214.862 120.814 207.832C122.669 204.108 125.974 201.024 127.004 197.013C127.85 193.753 127.062 190.286 127.619 186.965C127.924 185.454 128.44 183.989 129.154 182.611C130.062 180.74 131.248 179.006 132.674 177.461C131.266 177.068 129.952 176.528 129.154 175.4C131.413 173.989 131.755 170.809 130.73 168.42C129.705 166.032 127.656 164.212 125.812 162.328C123.967 160.443 122.191 158.246 121.96 155.676C121.513 150.783 126.61 146.993 127.509 142.166C128.418 137.252 124.824 132.475 125.113 127.501C125.449 121.489 131.208 117.12 136.894 114.586C145.474 110.777 154.952 109.212 164.366 110.05C172.028 110.746 179.443 113.018 187.083 113.9C191.692 114.404 196.363 114.455 200.94 115.231C205.517 116.007 210.105 117.644 213.326 120.865C221.818 129.356 211.644 136.345 211.161 145.295Z" fill="#575A89"/>
<path opacity="0.1" d="M204.056 373.574C201.376 372.46 196.5 373.126 188.129 370.682C179.758 368.238 178.144 357.191 178.144 357.191V357.156C178.045 356.904 177.267 355.261 172.002 349.507C166.184 343.152 153.61 311.057 153.61 311.057C153.61 311.057 142.459 299.572 142.811 295.339C143.163 291.106 140.83 279.844 141.061 267.245C141.292 254.647 166.163 246.292 166.163 246.292C214.051 238.154 202.774 291.096 201.497 295.108C200.22 299.119 206.846 309.953 206.846 309.953C205.911 314.67 210.682 321.972 210.682 321.972C210.682 321.972 211.838 328.432 212.075 330.886C212.088 331 212.114 331.111 212.154 331.219C212.921 333.532 219.174 335.628 221.718 336.903C224.392 338.244 232.994 349.945 232.994 349.945C234.849 358.537 206.725 374.703 204.056 373.574Z" fill="black"/>
<path d="M205.449 371.558C202.774 370.44 197.892 371.11 189.527 368.661C181.161 366.212 179.542 355.176 179.542 355.176V355.14C179.448 354.883 178.665 353.246 173.399 347.491C167.582 341.136 155.008 309.036 155.008 309.036C155.008 309.036 143.857 297.557 144.204 293.324C144.55 289.091 142.228 277.828 142.459 265.24C142.69 252.652 167.546 244.302 167.546 244.302C215.433 236.163 204.156 289.106 202.879 293.117C201.602 297.128 208.229 307.963 208.229 307.963C207.293 312.679 212.065 319.981 212.065 319.981C212.065 319.981 213.221 326.442 213.462 328.896C213.471 329.009 213.496 329.121 213.536 329.228C214.303 331.542 220.556 333.638 223.105 334.913C225.774 336.248 234.382 347.954 234.382 347.954C236.247 356.531 208.123 372.697 205.449 371.558Z" fill="#EB5569"/>
<path opacity="0.1" d="M168.491 271.942C168.491 271.942 189.411 293.107 194.871 293.107C200.331 293.107 168.491 271.942 168.491 271.942Z" fill="black"/>
<path d="M205.449 371.558C202.774 370.44 197.892 371.11 189.526 368.661C181.161 366.212 179.542 355.176 179.542 355.176V355.141C185.086 351.613 199.127 341.65 204.66 338.007C208.554 335.452 211.733 331.698 213.594 329.208C214.361 331.521 220.614 333.618 223.163 334.893C225.832 336.228 234.44 347.934 234.44 347.934C236.247 356.531 208.123 372.697 205.449 371.558Z" fill="#FF748E"/>
<g opacity="0.1">
<path opacity="0.1" d="M129.185 175.455C129.211 175.495 129.248 175.531 129.28 175.571C129.437 175.379 129.6 175.188 129.768 175.007C129.589 175.174 129.394 175.324 129.185 175.455Z" fill="black"/>
<path opacity="0.1" d="M141.376 198.555C141.597 195.758 143.158 193.294 144.619 190.835C143.662 190.482 142.706 190.124 141.76 189.752C141.85 189.186 141.896 188.615 141.897 188.043C140.42 190.563 138.812 193.042 138.586 195.879C138.318 199.246 140.047 202.43 141.581 205.454C147.488 217.145 151.129 230.822 146.689 243.097C144.76 248.429 141.434 253.176 139.001 258.331C134.75 267.46 133.5 277.615 135.417 287.443C136.621 293.556 139.059 299.598 138.46 305.791C137.409 316.449 127.829 324.381 118.224 329.828C114.298 332.056 109.711 334.097 105.323 333.95C104.917 334.577 104.464 335.175 103.967 335.739C109.479 338.073 115.822 335.447 121.009 332.504C130.62 327.062 140.22 319.15 141.271 308.472C141.87 302.279 139.432 296.236 138.223 290.124C136.305 280.297 137.551 270.143 141.797 261.012C144.214 255.862 147.577 251.11 149.485 245.778C153.925 233.503 150.278 219.826 144.377 208.135C142.848 205.091 141.108 201.921 141.376 198.555Z" fill="black"/>
<path opacity="0.1" d="M213.315 120.925C212.798 120.417 212.243 119.945 211.655 119.514C218.023 127.436 208.828 134.168 208.37 142.695C207.96 150.405 208.633 167.649 199.726 171.509C195.323 173.419 190.598 169.237 185.769 169.136C182.285 169.065 179.101 171.187 176.973 173.827C174.844 176.468 173.536 179.612 171.996 182.606C170.592 185.322 168.976 187.933 167.162 190.417C166.111 191.893 164.881 193.365 163.21 194.196C160.32 195.642 156.805 194.831 153.689 193.894C150.658 192.98 147.656 191.972 144.682 190.87C144.676 191.395 144.63 191.919 144.545 192.437C148.465 193.969 152.443 195.343 156.479 196.559C159.59 197.497 163.105 198.308 166.001 196.862C167.666 196.03 168.875 194.554 169.952 193.077C171.767 190.597 173.382 187.988 174.781 185.272C176.326 182.278 177.63 179.129 179.763 176.488C181.896 173.847 185.076 171.731 188.554 171.802C193.389 171.902 198.113 176.085 202.516 174.175C211.423 170.315 210.746 153.071 211.161 145.36C211.644 136.396 221.817 129.411 213.315 120.925Z" fill="black"/>
</g>
<path opacity="0.1" d="M144.072 191.697C143.625 192.453 143.189 193.208 142.79 193.984C142.638 194.282 142.49 194.589 142.359 194.897C139.606 192.236 132.9 185.912 129.159 183.951C130.069 182.081 131.254 180.347 132.68 178.801C132.68 178.801 141.597 183.321 144.072 191.697Z" fill="black"/>
<path d="M144.319 191.284C142.254 182.319 132.68 177.466 132.68 177.466C131.253 179.011 130.067 180.745 129.159 182.616C133.105 184.687 140.378 191.631 142.79 193.985L144.319 191.284Z" fill="#EB5569"/>
<defs>
<linearGradient id="paint0_linear_4_6" x1="384.029" y1="48.0723" x2="384.029" y2="38.8101" gradientUnits="userSpaceOnUse">
<stop stop-color="#808080" stop-opacity="0.25"/>
<stop offset="0.54" stop-color="#808080" stop-opacity="0.12"/>
<stop offset="1" stop-color="#808080" stop-opacity="0.1"/>
</linearGradient>
<linearGradient id="paint1_linear_4_6" x1="241078" y1="331838" x2="241078" y2="23136.5" gradientUnits="userSpaceOnUse">
<stop stop-color="#808080" stop-opacity="0.25"/>
<stop offset="0.54" stop-color="#808080" stop-opacity="0.12"/>
<stop offset="1" stop-color="#808080" stop-opacity="0.1"/>
</linearGradient>
</defs>
</svg>
